<svg width="101" height="110" viewBox="0 0 101 110" fill="none" xmlns="http://www.w3.org/2000/svg">
<path d="M50.7482 88.611C55.1944 91.029 56.7731 84.8495 59.4832 82.0537C69.2023 79.3608 80.5821 81.6392 93.8813 89.6834C86.8121 96.6868 79.571 103.179 70.9517 105.532C64.2238 105.58 59.8316 99.3204 55.6636 103.355C76.8282 117.695 87.2094 99.7002 100.434 90.2269C83.4833 78.3573 59.6959 67.5878 50.7482 88.611ZM13.0626 8.34656C41.0717 21.9763 73.4016 46.1421 51.2927 76.5948C83.9304 46.5132 39.0135 19.673 13.0639 0.154606C-1.19154 22.9715 -6.10843 58.896 13.0736 73.8831C17.302 77.187 31.168 85.2977 37.0977 80.4244C0.931242 73.0814 -2.15729 35.7225 13.0626 8.34656ZM74.772 89.6909C62.5686 86.7596 54.1375 95.137 44.7442 100.629C48.3959 70.8871 43.8954 43.8678 22.3457 22.5403C20.7628 22.3475 19.4046 22.8191 18.5244 24.7268C42.8785 47.2412 45.1105 77.1404 38.7398 109.915C47.3584 106.228 53.701 98.114 62.7609 94.6115C67.0497 92.954 73.5905 94.8515 74.772 89.6909Z" fill="#4DA829" fill-opacity="0.75"/>
</svg>
