<svg width="40" height="31" viewBox="0 0 40 31" fill="none" xmlns="http://www.w3.org/2000/svg">
<path d="M31.812 30.16C29.012 30.16 26.692 29.24 24.852 27.4C23.092 25.56 22.212 22.92 22.212 19.48C22.212 15.8 23.252 12.16 25.332 8.56C27.492 4.96 30.492 2.16 34.332 0.159992L37.092 4.36C32.932 7.24 30.452 10.88 29.652 15.28C30.372 14.96 31.212 14.8 32.172 14.8C34.412 14.8 36.252 15.52 37.692 16.96C39.132 18.4 39.852 20.24 39.852 22.48C39.852 24.72 39.092 26.56 37.572 28C36.052 29.44 34.132 30.16 31.812 30.16ZM9.73203 30.16C6.93203 30.16 4.61203 29.24 2.77203 27.4C1.01203 25.56 0.132032 22.92 0.132032 19.48C0.132032 15.8 1.17203 12.16 3.25203 8.56C5.41203 4.96 8.41203 2.16 12.252 0.159992L15.012 4.36C10.852 7.24 8.37203 10.88 7.57203 15.28C8.29203 14.96 9.13203 14.8 10.092 14.8C12.332 14.8 14.172 15.52 15.612 16.96C17.052 18.4 17.772 20.24 17.772 22.48C17.772 24.72 17.012 26.56 15.492 28C13.972 29.44 12.052 30.16 9.73203 30.16Z" fill="white"/>
</svg>
