<svg width="40" height="31" viewBox="0 0 40 31" fill="none" xmlns="http://www.w3.org/2000/svg">
<path d="M27.732 30.76L24.972 26.56C29.132 23.68 31.612 20.04 32.412 15.64C31.692 15.96 30.852 16.12 29.892 16.12C27.652 16.12 25.812 15.4 24.372 13.96C22.932 12.52 22.212 10.68 22.212 8.44C22.212 6.12 22.972 4.28 24.492 2.92C26.012 1.48 27.932 0.759996 30.252 0.759996C33.052 0.759996 35.332 1.68 37.092 3.52C38.932 5.36 39.852 8 39.852 11.44C39.852 15.12 38.772 18.76 36.612 22.36C34.532 25.88 31.572 28.68 27.732 30.76ZM5.65203 30.76L2.89203 26.56C7.05203 23.68 9.53203 20.04 10.332 15.64C9.61203 15.96 8.77203 16.12 7.81203 16.12C5.57203 16.12 3.73203 15.4 2.29203 13.96C0.852032 12.52 0.132032 10.68 0.132032 8.44C0.132032 6.12 0.892032 4.28 2.41203 2.92C3.93203 1.48 5.85203 0.759996 8.17203 0.759996C10.972 0.759996 13.252 1.68 15.012 3.52C16.852 5.36 17.772 8 17.772 11.44C17.772 15.12 16.692 18.76 14.532 22.36C12.452 25.88 9.49203 28.68 5.65203 30.76Z" fill="white"/>
</svg>
